<svg xmlns="http://www.w3.org/2000/svg" width="960" height="320" viewBox="0 0 960 320" role="img" aria-labelledby="title desc">
  <title id="title">Kastor</title>
  <desc id="desc">Kastor logo for a local MCP tool server.</desc>
  <defs>
    <linearGradient id="bg" x1="0" y1="0" x2="1" y2="1">
      <stop offset="0" stop-color="#07131f"/>
      <stop offset="1" stop-color="#0d2438"/>
    </linearGradient>
    <linearGradient id="mark" x1="0" y1="0" x2="1" y2="1">
      <stop offset="0" stop-color="#7dd3fc"/>
      <stop offset="0.55" stop-color="#22c55e"/>
      <stop offset="1" stop-color="#facc15"/>
    </linearGradient>
  </defs>
  <rect width="960" height="320" rx="34" fill="url(#bg)"/>
  <g transform="translate(78 64)">
    <rect x="0" y="0" width="184" height="184" rx="40" fill="#0b1724" stroke="#1f3a50" stroke-width="3"/>
    <path d="M48 132V52h26v34l42-34h35l-48 39 53 41h-38l-44-35v35z" fill="url(#mark)"/>
    <circle cx="139" cy="47" r="10" fill="#7dd3fc"/>
    <circle cx="154" cy="70" r="6" fill="#22c55e"/>
  </g>
  <g transform="translate(304 78)" fill="#e5f4ff">
    <text x="0" y="70" font-family="Inter, Segoe UI, Arial, sans-serif" font-size="72" font-weight="760">Kastor</text>
    <text x="4" y="122" font-family="Inter, Segoe UI, Arial, sans-serif" font-size="28" fill="#9fb8ca">Local tools for trusted MCP clients</text>
    <g transform="translate(4 154)" font-family="Inter, Segoe UI, Arial, sans-serif" font-size="20" fill="#b8d2e3">
      <rect x="0" y="0" width="160" height="38" rx="19" fill="#0d2b3f" stroke="#1e5470"/>
      <text x="22" y="25">files</text>
      <rect x="178" y="0" width="150" height="38" rx="19" fill="#0d2b3f" stroke="#1e5470"/>
      <text x="200" y="25">git</text>
      <rect x="346" y="0" width="172" height="38" rx="19" fill="#0d2b3f" stroke="#1e5470"/>
      <text x="368" y="25">checks</text>
      <rect x="536" y="0" width="214" height="38" rx="19" fill="#0d2b3f" stroke="#1e5470"/>
      <text x="558" y="25">computer use</text>
    </g>
  </g>
</svg>
